<svg width="16" height="16" xmlns="http://www.w3.org/2000/svg" xmlns:xlink="http://www.w3.org/1999/xlink" xml:space="preserve" overflow="hidden"><g transform="translate(-632 -352)"><path d="M632 353.146C632 352.513 632.526 352 633.175 352L646.825 352C647.474 352 648 352.513 648 353.146L648 366.854C648 367.487 647.474 368 646.825 368L633.175 368C632.526 368 632 367.487 632 366.854ZM636.943 365.394 636.943 358.169 634.542 358.169 634.542 365.394ZM635.743 357.182C636.58 357.182 637.101 356.628 637.101 355.934 637.086 355.225 636.581 354.686 635.759 354.686 634.937 354.686 634.4 355.226 634.4 355.934 634.4 356.628 634.921 357.182 635.727 357.182ZM640.651 365.394 640.651 361.359C640.651 361.143 640.667 360.927 640.731 360.773 640.904 360.342 641.299 359.895 641.963 359.895 642.832 359.895 643.179 360.557 643.179 361.529L643.179 365.394 645.58 365.394 645.58 361.25C645.58 359.03 644.396 357.998 642.816 357.998 641.542 357.998 640.971 358.698 640.651 359.191L640.651 359.216 640.635 359.216 640.651 359.191 640.651 358.169 638.251 358.169C638.281 358.847 638.251 365.394 638.251 365.394Z" fill="#FFFFFF"/></g></svg>