<?xml version="1.0" encoding="UTF-8"?>
<svg version="1.1" xmlns="http://www.w3.org/2000/svg" width="1721" height="1356">
<path d="M0 0 C424.05 0 848.1 0 1285 0 C1285 330 1285 660 1285 1000 C860.95 1000 436.9 1000 0 1000 C0 670 0 340 0 0 Z M864.1796875 106.59765625 C857.95453337 113.21383765 855.76917573 120.59894821 855.5 129.5625 C855.79814992 139.12253307 858.60076501 145.25232127 865.07421875 152.2109375 C872.57585205 159.18000049 880.55622635 161.51936061 890.69140625 161.30078125 C900.43504959 160.41499549 907.75219817 155.38678164 914 148 C919.25692057 139.54167387 920.55596266 130.44821469 918.5234375 120.71875 C917.84896221 118.67094549 917.02896811 116.89423675 916 115 C915.5978125 114.24976563 915.195625 113.49953125 914.78125 112.7265625 C910.31840105 105.26368731 904.15902852 100.87593086 896 98 C883.93838197 95.48631826 873.42739878 98.48110279 864.1796875 106.59765625 Z M977.1796875 106.6328125 C971.19934241 113.09398936 967.86633242 121.17793998 968 130 C969.11040394 140.9673743 973.20307611 147.94627148 981.4375 155.125 C989.25391934 160.84433122 996.52469876 161.79152032 1006 161 C1014.21801533 159.2704713 1020.56839845 155.40230946 1026 149 C1031.26312967 140.50092696 1032.98310907 132.97309536 1032 123 C1029.24667514 113.56160237 1024.94122026 106.70422502 1016.6484375 101.359375 C1003.00309081 94.35556874 988.51413922 96.46585795 977.1796875 106.6328125 Z M1090.765625 106.046875 C1083.87370707 113.3412407 1080.75327571 120.89881712 1081 131 C1082.72755578 142.30763784 1087.2850696 149.73278815 1096.375 156.6875 C1103.84887198 161.77677471 1112.7290622 162.09666639 1121.45703125 160.5703125 C1130.40654641 158.03122063 1137.07993573 152.02463483 1141.84765625 144.1796875 C1145.66879787 136.95190098 1146.14392766 129.0346517 1144.34765625 121.12890625 C1141.6122429 112.66438682 1136.46361602 105.91506421 1129 101 C1116.04704982 94.6521966 1101.51582654 96.19878827 1090.765625 106.046875 Z M98 259 C98 471.52 98 684.04 98 903 C459.35 903 820.7 903 1193 903 C1193 690.48 1193 477.96 1193 259 C831.65 259 470.3 259 98 259 Z " fill="#000000" transform="translate(222,144)"/>
<path d="M0 0 C1.16198914 -0.00571014 2.32397827 -0.01142029 3.5211792 -0.01730347 C4.78724503 -0.01842133 6.05331085 -0.01953918 7.35774231 -0.02069092 C8.71169672 -0.02532303 10.06564983 -0.03034821 11.41960144 -0.03573608 C15.09134683 -0.04882593 18.76307395 -0.05529858 22.43483901 -0.05974674 C24.73234217 -0.06268353 27.02984041 -0.06678951 29.32734108 -0.07125092 C36.52586918 -0.08491805 43.72438595 -0.09458803 50.92292613 -0.09845281 C59.21341212 -0.10292908 67.50373288 -0.12046019 75.79416865 -0.1494534 C82.21475819 -0.17112252 88.63530141 -0.1811599 95.0559271 -0.18249393 C98.884794 -0.18353839 102.71350542 -0.18936917 106.5423336 -0.20731354 C110.14818132 -0.2238846 113.75375818 -0.22590639 117.35963058 -0.21717453 C119.29952731 -0.21604636 121.23941541 -0.22969449 123.17926025 -0.243927 C135.20174094 -0.18699672 145.18146335 2.26939997 153.93904114 10.82794189 C158.48753807 16.74406121 161.31875093 24.9291249 161.30929565 32.37988281 C161.31135765 33.63763268 161.31135765 33.63763268 161.3134613 34.92079163 C161.30986603 35.83213364 161.30627075 36.74347565 161.30256653 37.68243408 C161.30271255 38.64862167 161.30285858 39.61480927 161.30300903 40.61027527 C161.30231258 43.80264534 161.29453263 46.99495702 161.28669739 50.18731689 C161.28483226 52.4012041 161.2834088 54.61509172 161.28240967 56.82897949 C161.27859196 62.65524434 161.26876801 68.48148426 161.25770569 74.30773926 C161.24567682 81.29865504 161.24108577 88.28957915 161.23525238 95.28050232 C161.22555589 105.90049952 161.20639408 116.52044201 161.18904114 127.14044189 C141.05904114 127.14044189 120.92904114 127.14044189 100.18904114 127.14044189 C100.18904114 102.39044189 100.18904114 77.64044189 100.18904114 52.14044189 C76.09904114 52.14044189 52.00904114 52.14044189 27.18904114 52.14044189 C27.08591614 63.77294189 26.98279114 75.40544189 26.87654114 87.39044189 C26.81039612 91.0401001 26.7442511 94.6897583 26.67610168 98.45001221 C26.67926 101.770947 26.67926 101.770947 26.69961548 105.09179688 C26.70040091 106.55145166 26.67598987 108.01127193 26.63040161 109.47021484 C26.33886339 119.36062819 26.33886339 119.36062819 31.04905701 127.72454834 C34.2182994 130.81859789 37.66491216 133.46437534 41.18904114 136.14044189 C42.48688487 137.38367814 43.76749379 138.64635785 45.00154114 139.95294189 C47.24623041 142.24164468 49.56745856 144.3665854 52.00154114 146.45294189 C55.21237869 149.21662219 58.21171279 152.12663786 61.18904114 155.14044189 C64.73136312 158.72602888 68.36459775 162.08935851 72.19294739 165.36309814 C75.25570841 168.09021412 78.09127607 171.03448826 80.97029114 173.95294189 C82.98334746 175.93764531 85.04350516 177.80141106 87.18904114 179.64044189 C90.98262846 182.89208817 94.46296761 186.39757284 97.97029114 189.95294189 C99.98334746 191.93764531 102.04350516 193.80141106 104.18904114 195.64044189 C107.98262846 198.89208817 111.46296761 202.39757284 114.97029114 205.95294189 C116.98334746 207.93764531 119.04350516 209.80141106 121.18904114 211.64044189 C124.16044323 214.18735797 126.94048124 216.85423049 129.68904114 219.64044189 C132.39707679 222.38544731 135.13073363 225.013151 138.06404114 227.51544189 C149.82209513 237.74494886 160.11916541 248.20702966 161.38056564 264.63474083 C161.46191347 267.4965331 161.4821442 270.35243859 161.47956848 273.21539307 C161.48628571 274.29783295 161.49300293 275.38027283 161.49992371 276.49551392 C161.51885156 280.05819345 161.52282552 283.62068402 161.52497864 287.18341064 C161.53141092 289.67432226 161.5381396 292.16523313 161.54515076 294.65614319 C161.55711105 299.87366486 161.56083293 305.09112038 161.55964661 310.30865479 C161.5583156 316.96833388 161.58672612 323.62752132 161.62119102 330.28711987 C161.64351747 335.43209246 161.64748235 340.57696308 161.64642715 345.72197914 C161.64877521 348.17577906 161.65755343 350.62958213 161.67309189 353.08333397 C161.85300186 384.43228631 161.85300186 384.43228631 153.00154114 393.70294189 C140.36531233 406.3391707 121.051062 404.39889494 104.42597961 404.41833496 C101.87824936 404.41475459 99.33051979 404.41065248 96.78279114 404.40606689 C94.12731195 404.40741691 91.47183828 404.40935808 88.81636047 404.41186523 C83.27243524 404.41548249 77.72856366 404.41076518 72.18464661 404.40118408 C65.81632292 404.39030387 59.4481274 404.39383105 53.0798068 404.40483689 C47.56762725 404.41397421 42.0554858 404.41516385 36.54330111 404.40995955 C33.27058273 404.40687495 29.99793622 404.40714206 26.72521973 404.41303253 C-13.18311021 404.46911642 -13.18311021 404.46911642 -23.83439636 395.42169189 C-32.72090449 386.27271306 -33.97139063 374.25816054 -33.92448425 362.0960083 C-33.92463028 361.10026794 -33.92477631 360.10452759 -33.92492676 359.07861328 C-33.92423219 355.7997212 -33.91646114 352.5208865 -33.90861511 349.24200439 C-33.90674931 346.96371492 -33.90532617 344.68542503 -33.90432739 342.40713501 C-33.90051497 336.41978848 -33.89069556 330.43246632 -33.87962341 324.44512939 C-33.86758024 317.25642907 -33.86300098 310.06772059 -33.8571701 302.87901306 C-33.84748313 291.96613907 -33.82831763 281.05331853 -33.81095886 270.14044189 C-13.68095886 270.14044189 6.44904114 270.14044189 27.18904114 270.14044189 C27.18904114 297.20044189 27.18904114 324.26044189 27.18904114 352.14044189 C51.27904114 352.14044189 75.36904114 352.14044189 100.18904114 352.14044189 C100.50610891 338.48961704 100.50610891 338.48961704 100.66365051 324.83966064 C100.69284588 319.25758719 100.73935902 313.6799869 100.89875793 308.09991455 C102.50882921 286.69892712 102.50882921 286.69892712 95.57917786 267.32012939 C92.21096126 263.8230111 88.53451242 261.15859295 84.40287781 258.6350708 C81.19778937 256.47121748 78.65376554 253.79814971 75.99838257 251.00408936 C74.20692373 249.15886122 72.33899405 247.48837022 70.37654114 245.82794189 C66.98708508 242.91793739 63.8245266 239.81884247 60.68904114 236.64044189 C57.61514259 233.52464321 54.52201923 230.48166912 51.18904114 227.64044189 C47.33782045 224.35743409 43.80615254 220.78639678 40.25544739 217.18731689 C37.64998881 214.56020631 35.00450689 212.04051106 32.18904114 209.64044189 C28.33782045 206.35743409 24.80615254 202.78639678 21.25544739 199.18731689 C18.64998881 196.56020631 16.00450689 194.04051106 13.18904114 191.64044189 C8.91323519 187.99549256 5.01701579 184.00041593 1.09529114 179.98419189 C-1.07138315 177.81405647 -3.33009782 175.78601592 -5.64689636 173.77716064 C-19.52823419 161.73508369 -32.49120416 150.129807 -33.99745941 130.73959732 C-34.06859416 128.16506731 -34.08140072 125.59727477 -34.06974792 123.02178955 C-34.07325256 122.05303391 -34.0767572 121.08427826 -34.08036804 120.08616638 C-34.08911343 116.9088711 -34.08336074 113.73180164 -34.07658386 110.55450439 C-34.0779328 108.32927406 -34.07987523 106.10404402 -34.0823822 103.8788147 C-34.08532392 99.22380761 -34.08106727 94.5688775 -34.07170105 89.91387939 C-34.06032048 83.97048101 -34.0668633 78.02726356 -34.07884598 72.08387184 C-34.08610165 67.49057676 -34.08375943 62.89732397 -34.07859039 58.30402756 C-34.07726345 56.11374261 -34.07886785 53.92345372 -34.0835495 51.73317337 C-34.08867441 48.66130782 -34.08082079 45.5897278 -34.06974792 42.5178833 C-34.07379639 41.62714615 -34.07784485 40.736409 -34.08201599 39.81867981 C-34.00713972 28.50761571 -32.25747266 17.3684967 -24.56095886 8.58966064 C-17.46114494 2.71012724 -9.07007187 0.02678124 0 0 Z " fill="#000000" transform="translate(793.8109588623047,526.8595581054688)"/>
<path d="M0 0 C20.46 0 40.92 0 62 0 C62.04524276 46.3709062 62.08103545 92.74180708 62.10213066 139.11273098 C62.10463198 144.59118593 62.10722063 150.06964083 62.10986328 155.5480957 C62.1103879 156.63872605 62.11091252 157.7293564 62.11145304 158.85303616 C62.12014813 176.49652684 62.13591316 194.14000445 62.15430559 211.78348739 C62.17302959 229.89652777 62.18412201 248.00956132 62.18817699 266.12261099 C62.19091686 277.29315156 62.19956069 288.46365516 62.21583293 299.63418435 C62.22643068 307.30133462 62.22959432 314.96846587 62.22700275 322.63562293 C62.2257258 327.05461298 62.22763946 331.47353859 62.23841095 335.89251709 C62.24822267 339.94761263 62.24858416 344.00260104 62.24179779 348.05770176 C62.24096041 349.51556547 62.24342995 350.97343617 62.24976636 352.43128634 C62.37083214 382.03547443 62.37083214 382.03547443 52.6875 393.8125 C40.51202411 403.72277107 27.70045991 404.15212156 12.52441406 404.14526367 C11.43499512 404.14862228 10.34557617 404.1519809 9.22314453 404.15544128 C5.65395946 404.16486977 2.08482171 404.16689028 -1.484375 404.16796875 C-3.9886273 404.17118689 -6.49287943 404.17455138 -8.99713135 404.17805481 C-14.23539668 404.18402579 -19.47364557 404.1858968 -24.71191406 404.18530273 C-30.06350684 404.18476919 -35.41502734 404.19180435 -40.76660156 404.20581055 C-47.26322104 404.22256487 -53.75977581 404.2293556 -60.25641632 404.22869301 C-62.71692522 404.22986502 -65.17743495 404.23424254 -67.63793182 404.24202538 C-106.96273599 404.35477657 -106.96273599 404.35477657 -118.875 393.875 C-122.84115396 389.6188678 -124.43084628 384.50891063 -126 379 C-126.26625765 378.07281347 -126.26625765 378.07281347 -126.53789425 377.1268959 C-127.03777312 374.82614479 -127.12299136 372.77256963 -127.12025452 370.41888428 C-127.12162918 369.50465698 -127.12300385 368.59042969 -127.12442017 367.64849854 C-127.12082489 366.65299988 -127.11722961 365.65750122 -127.11352539 364.63183594 C-127.11367142 363.57786621 -127.11381744 362.52389648 -127.1139679 361.43798828 C-127.1132711 357.9534296 -127.10548953 354.46892434 -127.09765625 350.984375 C-127.09579124 348.56870554 -127.09436773 346.1530357 -127.09336853 343.73736572 C-127.08954986 337.37844804 -127.07972508 331.01955319 -127.06866455 324.66064453 C-127.05663829 317.03146842 -127.0520451 309.40228468 -127.04621124 301.77310181 C-127.03651302 290.18205199 -127.01735187 278.59105227 -127 267 C-106.87 267 -86.74 267 -66 267 C-66 294.72 -66 322.44 -66 351 C-44.22 351 -22.44 351 0 351 C0 235.17 0 119.34 0 0 Z " fill="#000000" transform="translate(653,527)"/>
<path d="M0 0 C18.81 0 37.62 0 57 0 C56.22097434 5.45317959 55.44195424 8.94662605 53.44775391 13.88354492 C53.18411104 14.54251739 52.92046818 15.20148985 52.64883614 15.88043118 C51.76535755 18.08344915 50.87090475 20.281841 49.9765625 22.48046875 C49.33327978 24.07875911 48.69074359 25.67735012 48.04888916 27.2762146 C46.65427478 30.7462284 45.2549494 34.21429068 43.85198975 37.68093872 C41.58755795 43.27686346 39.3339075 48.87708813 37.08251953 54.47827148 C36.69552069 55.44099629 36.30852184 56.4037211 35.90979576 57.39561939 C35.11224952 59.37965419 34.31472824 61.36369903 33.51723099 63.34775352 C32.28007975 66.42458275 31.04191823 69.50100386 29.80355835 72.5773468 C20.69606295 95.20835366 11.68057764 117.87587799 2.66619873 140.5440979 C-1.95179923 152.15669779 -6.57346277 163.76783895 -11.1953125 175.37890625 C-11.85466608 177.03543622 -11.85466608 177.03543622 -12.52733994 178.72543144 C-19.76371671 196.9050208 -27.02098466 215.07608078 -34.29785156 233.23950195 C-47.60958836 266.47176224 -60.8292896 299.7408016 -74.0653038 333.0032711 C-77.52123983 341.68770756 -80.97892959 350.37144463 -84.43783951 359.05469704 C-86.73794761 364.82927877 -89.03580174 370.60474892 -91.33146095 376.38110065 C-92.66102729 379.7251568 -93.99266344 383.06838552 -95.32494736 386.41135979 C-95.93018523 387.93130605 -96.53452638 389.45160973 -97.13791275 390.97229195 C-97.94749788 393.01234165 -98.76018551 395.0511265 -99.57373047 397.08959961 C-100.02215302 398.21692001 -100.47057556 399.34424042 -100.93258667 400.50572205 C-102 403 -102 403 -103 404 C-104.71865409 404.0935919 -106.44115744 404.11744611 -108.16235352 404.11352539 C-109.26341934 404.11344986 -110.36448517 404.11337433 -111.49891663 404.11329651 C-112.6968132 404.10813522 -113.89470978 404.10297394 -115.12890625 404.09765625 C-116.34827377 404.0962413 -117.5676413 404.09482635 -118.82395935 404.09336853 C-122.7368307 404.08774967 -126.64964581 404.07519396 -130.5625 404.0625 C-133.20768147 404.05748743 -135.85286383 404.0529241 -138.49804688 404.04882812 C-144.99871726 404.03777411 -151.49935461 404.02101764 -158 404 C-158.77553597 396.83461072 -156.00472373 391.26007419 -153.265625 384.7421875 C-152.73085528 383.4420143 -152.19765352 382.14119535 -151.66583252 380.83981323 C-150.7794642 378.67097132 -149.89222241 376.50252909 -149.00097275 374.33568764 C-145.19459417 365.07515644 -141.51171669 355.76559107 -137.81817245 346.45963097 C-135.6420604 340.97899719 -133.46053708 335.50051732 -131.27978516 330.02172852 C-130.36824201 327.73097667 -129.45672291 325.44021525 -128.54522705 323.14944458 C-104.78182564 263.43047377 -104.78182564 263.43047377 -93.8046875 235.99609375 C-93.27259422 234.66624199 -93.27259422 234.66624199 -92.72975159 233.30952454 C-89.4618307 225.14279169 -86.19221503 216.97674001 -82.91922951 208.81203556 C-75.11466565 189.34148777 -67.36699886 169.84888993 -59.64572144 150.34516144 C-52.71262853 132.83314398 -45.7596424 115.32916073 -38.7890625 97.83203125 C-38.32813328 96.67493464 -37.86720406 95.51783802 -37.39230728 94.32567787 C-33.17794172 83.74640831 -28.96222617 73.16767686 -24.74609375 62.58911133 C-22.39352807 56.6862231 -20.04168717 50.78304649 -17.69025803 44.87970543 C-16.39755581 41.63497612 -15.10402238 38.39057906 -13.81045532 35.14619446 C-13.00982091 33.13629983 -12.20923064 31.12638762 -11.40869141 29.11645508 C-10.89280708 27.82360596 -10.89280708 27.82360596 -10.36650085 26.50463867 C-6.85770028 17.68972065 -3.43916532 8.84356796 0 0 Z " fill="#000000" transform="translate(1146,527)"/>
<path d="M0 0 C6.56270245 -0.14096805 6.56270245 -0.14096805 9.890625 2.38671875 C10.5904248 2.90613037 11.29022461 3.42554199 12.01123047 3.96069336 C13.11942139 4.81546265 13.11942139 4.81546265 14.25 5.6875 C15.86174299 6.89094137 17.47372883 8.09405756 19.0859375 9.296875 C19.90416992 9.91498047 20.72240234 10.53308594 21.56542969 11.16992188 C25.29890878 13.97639593 29.08518721 16.70784234 32.875 19.4375 C33.61137695 19.97012451 34.34775391 20.50274902 35.10644531 21.05151367 C41.53594967 25.6931159 48.03302771 30.23517521 54.53857422 34.76928711 C60.81173178 39.14860401 67.02049708 43.61029029 73.2109375 48.10546875 C78.7660241 52.1304701 84.3720325 56.07769044 90 60 C97.19129167 65.01234347 104.32378035 70.09756645 111.41967773 75.24389648 C118.51198689 80.38337567 125.66501722 85.43413516 132.82958984 90.47216797 C135.13441244 92.09461789 137.43665046 93.72068188 139.73828125 95.34765625 C140.90218384 96.17027954 140.90218384 96.17027954 142.08959961 97.00952148 C143.57883708 98.06221717 145.06793889 99.11510481 146.55688477 100.16821289 C147.22647217 100.64121826 147.89605957 101.11422363 148.5859375 101.6015625 C149.1742334 102.01744629 149.7625293 102.43333008 150.36865234 102.86181641 C151.8980166 103.92884666 153.44838602 104.96559068 155 106 C157.05681808 115.71636052 158.6483544 131.72658126 153.49414062 140.58935547 C149.51671678 144.74213465 144.63003829 147.2433489 139.49707031 149.72412109 C135.5128109 151.75987977 132.02774279 154.41069274 128.4375 157.0625 C127.03130204 158.05844849 125.62244288 159.05065032 124.2109375 160.0390625 C123.51581055 160.52793945 122.82068359 161.01681641 122.10449219 161.52050781 C120.7014974 162.50683594 119.2985026 163.49316406 117.89550781 164.47949219 C115.78386724 165.96459128 113.67292857 167.45067909 111.5625 168.9375 C110.86229736 169.43072754 110.16209473 169.92395508 109.44067383 170.43212891 C104.30449279 174.05856796 99.2111475 177.7413521 94.125 181.4375 C87.92462359 185.9409242 81.65285332 190.32106705 75.3125 194.625 C68.9662878 198.93328449 62.72068317 203.34336733 56.55737305 207.90893555 C49.84599247 212.87483587 43.01547509 217.66824003 36.18359375 222.46630859 C33.22497217 224.54435653 30.2681831 226.62498733 27.31323242 228.70825195 C25.86937024 229.72554412 24.42424507 230.74104635 22.9777832 231.75463867 C19.84012035 233.95979092 16.73057507 236.18150595 13.69921875 238.53125 C12.74660156 239.2634375 11.79398438 239.995625 10.8125 240.75 C10.01457031 241.38421875 9.21664063 242.0184375 8.39453125 242.671875 C5.42553446 244.31862689 3.34638327 244.09745356 0 244 C-0.20906102 236.03740366 -0.36870127 228.07596379 -0.46630955 220.11129665 C-0.51317239 216.41231927 -0.57665965 212.71522653 -0.67895508 209.01733398 C-0.77716561 205.44451138 -0.83063962 201.87349382 -0.85389519 198.29942513 C-0.87045299 196.94008019 -0.9027921 195.580828 -0.95157051 194.22225761 C-1.31481922 183.6802721 -1.31481922 183.6802721 1.73625183 179.78115845 C4.06104245 177.92823386 6.41442702 176.4637256 9 175 C10.5127187 173.97769539 12.01987692 172.94711254 13.52124023 171.90820312 C15.11454798 170.86210332 16.71044572 169.81994017 18.30859375 168.78125 C19.61797661 167.92307426 19.61797661 167.92307426 20.95381165 167.04756165 C22.81738485 165.82631588 24.68196714 164.60660876 26.54748535 163.38833618 C31.45890752 160.1792119 36.36006835 156.95449111 41.26171875 153.73046875 C42.24766022 153.08220627 43.23360168 152.43394379 44.24942017 151.76603699 C53.03155246 145.98780966 61.79326516 140.17997056 70.51638794 134.31298828 C72.00270168 133.31451751 73.49071648 132.31857415 74.98043823 131.32519531 C77.02797481 129.95911114 79.06946373 128.58446637 81.109375 127.20703125 C81.71340652 126.80631912 82.31743805 126.40560699 82.93977356 125.99275208 C84.32965517 125.04664509 85.67117025 124.03009747 87 123 C87 122.34 87 121.68 87 121 C85.56776043 119.76583938 85.56776043 119.76583938 83.64331055 118.57104492 C82.89967758 118.08285782 82.15604462 117.59467072 81.38987732 117.09169006 C80.56383499 116.55998703 79.73779266 116.028284 78.88671875 115.48046875 C77.10168255 114.31948903 75.31686199 113.15817771 73.53222656 111.99658203 C72.10336121 111.07017914 72.10336121 111.07017914 70.64562988 110.12506104 C67.66297793 108.17143816 64.70980049 106.17920533 61.76074219 104.17529297 C52.59809315 97.99195094 43.565728 92.09173286 33.58007812 87.3132019 C6.17044345 74.18512896 6.17044345 74.18512896 0 63 C-6.06861886 43.35346318 -2.63386215 19.99460139 0 0 Z " fill="#000000" transform="translate(1233,634)"/>
<path d="M0 0 C0.25568196 8.07556519 0.45070702 16.1494218 0.56993389 24.2280426 C0.62718152 27.98014953 0.7047044 31.72947491 0.82983398 35.47998047 C0.95000225 39.10476611 1.01524812 42.72689107 1.04364967 46.35351562 C1.0638658 47.73170884 1.10335302 49.10976745 1.16303062 50.48681641 C1.60887548 61.20809926 1.60887548 61.20809926 -2.22886658 65.48242188 C-5.05838126 67.56779368 -7.9253725 69.3009308 -11 71 C-12.42932104 71.95638329 -13.84970007 72.926371 -15.25756836 73.9140625 C-16.61673941 74.8200942 -17.9775381 75.72368835 -19.33984375 76.625 C-20.0932605 77.1262439 -20.84667725 77.62748779 -21.6229248 78.1439209 C-23.2301049 79.21277328 -24.83797723 80.28058544 -26.44650269 81.34741211 C-28.98513144 83.03159985 -31.52128335 84.71946158 -34.05688477 86.40820312 C-42.01600808 91.7069461 -49.98322088 96.9931332 -57.96604919 102.25610352 C-61.32434232 104.47126927 -64.67934519 106.69138753 -68.03396606 108.91210938 C-69.63435764 109.96940536 -71.2364695 111.02410207 -72.84030151 112.07617188 C-75.0629958 113.53426629 -77.2800727 115.00054113 -79.49609375 116.46875 C-80.15975952 116.90086792 -80.82342529 117.33298584 -81.50720215 117.77819824 C-83.04073071 118.80017076 -84.52656325 119.89314778 -86 121 C-86 121.66 -86 122.32 -86 123 C-83.46133203 124.86337343 -80.91407577 126.60454234 -78.27734375 128.3203125 C-77.47390533 128.8512854 -76.67046692 129.3822583 -75.84268188 129.92932129 C-74.11279717 131.07179087 -72.38090362 132.21122325 -70.64724731 133.34796143 C-66.12795068 136.31169329 -61.6231222 139.2972587 -57.1171875 142.28125 C-56.22969315 142.86822662 -55.34219879 143.45520325 -54.42781067 144.05996704 C-46.96681246 149.00205539 -39.52041611 153.97876142 -32.30940247 159.28201294 C-27.61244241 162.67710647 -23.00449923 165.57476932 -17.77124023 168.07763672 C-1.76949674 176.19839486 -1.76949674 176.19839486 1.26168823 184.42364502 C2.86616678 193.36134434 2.32024423 202.2914094 1.64794922 211.30303955 C1.39937399 214.99423809 1.2922166 218.68951243 1.171875 222.38671875 C0.91674926 229.60209979 0.50926021 236.79760558 0 244 C-3.84127362 244.099606 -5.6919766 243.94849575 -8.79296875 241.61328125 C-9.49607178 241.09378906 -10.1991748 240.57429687 -10.92358398 240.0390625 C-11.67067627 239.46929688 -12.41776855 238.89953125 -13.1875 238.3125 C-14.80712569 237.11045341 -16.42692205 235.90863676 -18.046875 234.70703125 C-18.87123047 234.08908691 -19.69558594 233.47114258 -20.54492188 232.83447266 C-24.31460707 230.0177051 -28.12318407 227.25588436 -31.9375 224.5 C-32.67492432 223.96552246 -33.41234863 223.43104492 -34.17211914 222.88037109 C-39.59207504 218.96879638 -45.09166889 215.18642692 -50.625 211.4375 C-57.28107315 206.92754389 -63.75912831 202.24403141 -70.15722656 197.37646484 C-75.28822306 193.48915222 -80.54519051 189.82491127 -85.86889648 186.20776367 C-90.89269509 182.78568531 -95.83333986 179.2615461 -100.75 175.6875 C-107.94530432 170.45872542 -115.20942693 165.33754142 -122.50732422 160.25317383 C-129.08702482 155.66048885 -135.60402459 150.9859574 -142.08984375 146.26171875 C-142.77949219 145.76027344 -143.46914063 145.25882813 -144.1796875 144.7421875 C-144.77507324 144.3076123 -145.37045898 143.87303711 -145.98388672 143.42529297 C-148.13237953 141.84839744 -148.13237953 141.84839744 -151.18237305 140.26147461 C-154 138 -154 138 -154.82397461 134.8112793 C-154.9734199 127.68492701 -154.9734199 127.68492701 -154.94702148 124.83813477 C-154.93755768 122.70052835 -155.0077408 120.57550706 -155.08398438 118.43945312 C-155.2269633 108.64848912 -155.2269633 108.64848912 -152.30371094 104.72094727 C-149.96946939 102.87693792 -147.59605377 101.44959398 -145 100 C-143.28884188 98.80809671 -141.58853765 97.60048598 -139.8984375 96.37890625 C-138.0590322 95.10425547 -136.21780771 93.83222684 -134.375 92.5625 C-132.3345952 91.14979767 -130.2942318 89.73703554 -128.25390625 88.32421875 C-126.69953857 87.24986572 -126.69953857 87.24986572 -125.11376953 86.15380859 C-120.17364021 82.7366986 -115.24301581 79.30596009 -110.3125 75.875 C-108.87946533 74.87835327 -108.87946533 74.87835327 -107.41748047 73.86157227 C-100.4547062 69.01751648 -93.50404034 64.15638536 -86.55786133 59.28857422 C-79.23937141 54.16207826 -71.90350082 49.06075556 -64.56640625 43.9609375 C-57.56004778 39.08940235 -50.56575122 34.2009511 -43.57836914 29.30224609 C-39.0682311 26.1420477 -34.55161373 22.99150303 -30.02734375 19.8515625 C-29.01349609 19.14773438 -27.99964844 18.44390625 -26.95507812 17.71875 C-25.0131171 16.37131815 -23.07046379 15.02488321 -21.12695312 13.6796875 C-15.41174961 9.71386886 -9.78418568 5.65367512 -4.21704102 1.48193359 C-2 0 -2 0 0 0 Z " fill="#000000" transform="translate(487,634)"/>
</svg>
