<svg width="16" height="16" xmlns="http://www.w3.org/2000/svg" xmlns:xlink="http://www.w3.org/1999/xlink" xml:space="preserve" overflow="hidden"><g transform="translate(-632 -352)"><path d="M640 352C635.58 352 632 355.58 632 360 632 363.54 634.29 366.53 637.47 367.59 637.87 367.66 638.02 367.42 638.02 367.21 638.02 367.02 638.01 366.39 638.01 365.72 636 366.09 635.48 365.23 635.32 364.78 635.23 364.55 634.84 363.84 634.5 363.65 634.22 363.5 633.82 363.13 634.49 363.12 635.12 363.11 635.57 363.7 635.72 363.94 636.44 365.15 637.59 364.81 638.05 364.6 638.12 364.08 638.33 363.73 638.56 363.53 636.78 363.33 634.92 362.64 634.92 359.58 634.92 358.71 635.23 357.99 635.74 357.43 635.66 357.23 635.38 356.41 635.82 355.31 635.82 355.31 636.49 355.1 638.02 356.13 638.66 355.95 639.34 355.86 640.02 355.86 640.7 355.86 641.38 355.95 642.02 356.13 643.55 355.09 644.22 355.31 644.22 355.31 644.66 356.41 644.38 357.23 644.3 357.43 644.81 357.99 645.12 358.7 645.12 359.58 645.12 362.65 643.25 363.33 641.47 363.53 641.76 363.78 642.01 364.26 642.01 365.01 642.01 366.08 642 366.94 642 367.21 642 367.42 642.15 367.67 642.55 367.59 645.807 366.491 648 363.437 648 360 648 355.58 644.42 352 640 352" fill="#FFFFFF"/></g></svg>