<svg width="16" height="16" xmlns="http://www.w3.org/2000/svg" xmlns:xlink="http://www.w3.org/1999/xlink" xml:space="preserve" overflow="hidden"><defs><clipPath id="clip0"><rect x="632" y="352" width="16" height="16"/></clipPath></defs><g clip-path="url(#clip0)" transform="translate(-632 -352)"><path d="M645.601 354.326C644.12 352.83 642.099 351.992 639.994 352 635.627 352 632.068 355.558 632.064 359.926 632.064 361.325 632.43 362.686 633.121 363.891L632 368 636.204 366.898C637.367 367.532 638.67 367.864 639.994 367.863L639.998 367.863C644.366 367.863 647.924 364.305 647.928 359.933 647.93 357.829 647.092 355.81 645.6 354.326ZM639.994 366.521C638.813 366.52 637.654 366.202 636.638 365.601L636.398 365.457 633.904 366.111 634.57 363.678 634.414 363.427C633.754 362.377 633.405 361.162 633.407 359.922 633.407 356.296 636.364 353.338 639.998 353.338 641.747 353.335 643.424 354.03 644.658 355.269 645.896 356.503 646.59 358.181 646.586 359.929 646.582 363.568 643.625 366.521 639.994 366.521M643.609 361.587C643.412 361.488 642.439 361.009 642.256 360.941 642.074 360.876 641.941 360.842 641.811 361.04 641.678 361.237 641.298 361.686 641.184 361.815 641.07 361.948 640.952 361.963 640.754 361.865 640.557 361.765 639.918 361.557 639.162 360.88 638.572 360.355 638.177 359.705 638.059 359.508 637.945 359.31 638.048 359.204 638.147 359.105 638.234 359.017 638.344 358.873 638.443 358.759 638.543 358.645 638.576 358.561 638.641 358.429 638.706 358.295 638.675 358.181 638.626 358.082 638.576 357.983 638.181 357.006 638.014 356.612 637.854 356.223 637.691 356.277 637.569 356.272 637.455 356.265 637.322 356.265 637.189 356.265 636.986 356.27 636.794 356.36 636.66 356.512 636.478 356.71 635.969 357.189 635.969 358.166 635.969 359.143 636.679 360.082 636.779 360.215 636.877 360.348 638.173 362.347 640.162 363.207 640.632 363.412 641.002 363.533 641.291 363.625 641.766 363.777 642.195 363.754 642.537 363.705 642.917 363.647 643.708 363.225 643.875 362.762 644.039 362.298 644.039 361.902 643.989 361.819 643.94 361.735 643.807 361.686 643.609 361.587" fill="#FFFFFF"/></g></svg>