<svg width="16" height="16" xmlns="http://www.w3.org/2000/svg" xmlns:xlink="http://www.w3.org/1999/xlink" xml:space="preserve" overflow="hidden"><defs><clipPath id="clip0"><rect x="632" y="352" width="16" height="16"/></clipPath></defs><g clip-path="url(#clip0)" transform="translate(-632 -352)"><path d="M639.202 367.967C637.935 367.836 636.717 367.404 635.65 366.707 634.752 366.122 634.549 365.881 634.549 365.401 634.549 364.436 635.611 362.745 637.428 360.818 638.459 359.723 639.897 358.44 640.052 358.475 640.354 358.543 642.77 360.898 643.674 362.006 645.104 363.759 645.762 365.195 645.428 365.835 645.174 366.321 643.598 367.272 642.441 367.637 641.487 367.938 640.234 368.066 639.202 367.967M633.336 364.397C632.589 363.253 632.212 362.127 632.03 360.497 631.97 359.958 631.992 359.651 632.167 358.547 632.385 357.17 633.169 355.577 634.112 354.597 634.513 354.18 634.549 354.17 635.038 354.334 635.633 354.534 636.268 354.972 637.251 355.862L637.825 356.381 637.512 356.766C636.056 358.553 634.52 361.086 633.94 362.653 633.625 363.505 633.498 364.36 633.634 364.716 633.725 364.956 633.641 364.866 633.334 364.397ZM646.437 364.592C646.511 364.232 646.418 363.572 646.199 362.905 645.726 361.462 644.144 358.777 642.691 356.952L642.234 356.377 642.728 355.923C643.374 355.33 643.823 354.975 644.308 354.673 644.689 354.436 645.235 354.225 645.469 354.225 645.614 354.225 646.123 354.753 646.534 355.329 647.187 356.261 647.644 357.317 647.877 358.431 648.03 359.159 648.043 360.717 647.901 361.443 647.768 362.093 647.567 362.728 647.301 363.336 647.122 363.729 646.677 364.492 646.481 364.74 646.381 364.868 646.381 364.867 646.438 364.592ZM639.335 353.952C638.665 353.612 637.631 353.247 637.059 353.149 636.808 353.111 636.554 353.096 636.3 353.106 635.829 353.13 635.85 353.106 636.606 352.748 637.199 352.464 637.825 352.255 638.47 352.128 639.27 351.959 640.776 351.958 641.564 352.123 642.414 352.303 643.417 352.675 643.982 353.023L644.15 353.126 643.765 353.106C642.999 353.068 641.885 353.376 640.687 353.959 640.326 354.135 640.011 354.275 639.988 354.271 639.767 354.171 639.549 354.065 639.334 353.952Z" fill="#FFFFFF"/></g></svg>